<svg width="28" height="28" viewBox="0 0 28 28" fill="none" xmlns="http://www.w3.org/2000/svg">
<path fill-rule="evenodd" clip-rule="evenodd" d="M14 28C21.732 28 28 21.732 28 14C28 6.26801 21.732 0 14 0C6.26801 0 0 6.26801 0 14C0 21.732 6.26801 28 14 28ZM9.36526 13.2639H22.4737C22.7668 13.2639 23.0479 13.3804 23.2552 13.5876C23.4625 13.7949 23.5789 14.076 23.5789 14.3691C23.5789 14.6622 23.4625 14.9433 23.2552 15.1506C23.0479 15.3578 22.7668 15.4743 22.4737 15.4743H9.36526L13.3774 20.2928C13.4704 20.4045 13.5406 20.5334 13.5837 20.6722C13.6269 20.811 13.6422 20.957 13.6289 21.1017C13.6155 21.2465 13.5737 21.3872 13.5059 21.5158C13.4381 21.6444 13.3456 21.7583 13.2337 21.8511C13.0348 22.0158 12.7846 22.1058 12.5263 22.1053C12.3639 22.1055 12.2035 22.07 12.0564 22.0012C11.9093 21.9325 11.7792 21.8322 11.6753 21.7074L6.14895 15.0764C6.11177 15.0237 6.07852 14.9683 6.04947 14.9106C5.97211 14.8554 5.97211 14.8222 5.97211 14.767C5.92201 14.6403 5.89578 14.5054 5.89474 14.3691C5.89578 14.2329 5.92201 14.098 5.97211 13.9713C6.04947 13.916 6.04947 13.8828 6.04947 13.8276C6.07852 13.77 6.11177 13.7146 6.14895 13.6618L11.6753 7.03082C11.8629 6.80513 12.1325 6.6632 12.4247 6.63626C12.717 6.60931 13.008 6.69956 13.2337 6.88715C13.4594 7.07474 13.6013 7.3443 13.6283 7.63654C13.6552 7.92877 13.565 8.21974 13.3774 8.44543L9.36526 13.2639Z"/>
</svg>
