<svg width="9" height="9" viewBox="0 0 9 9" fill="none" xmlns="http://www.w3.org/2000/svg">
<path d="M1.2002 0.190022L4.5002 3.49002L7.8002 0.200022C7.86518 0.133912 7.94316 0.0820022 8.02923 0.0475766C8.11529 0.013151 8.20756 -0.00304187 8.30021 2.20687e-05C8.48199 0.0117864 8.65329 0.0893132 8.7821 0.218126C8.91091 0.34694 8.98844 0.518233 9.00021 0.700022C9.00111 0.789404 8.98385 0.878038 8.94947 0.960549C8.91509 1.04306 8.86431 1.11773 8.80021 1.18002L5.4902 4.50002L8.80021 7.82002C8.93021 7.94602 9.00221 8.12002 9.00021 8.30002C8.98844 8.48181 8.91091 8.6531 8.7821 8.78192C8.65329 8.91073 8.48199 8.98826 8.30021 9.00002C8.20756 9.00309 8.11529 8.98689 8.02923 8.95247C7.94316 8.91804 7.86518 8.86613 7.8002 8.80002L4.5002 5.51002L1.2102 8.80002C1.14523 8.86613 1.06725 8.91804 0.981183 8.95247C0.895119 8.98689 0.802848 9.00309 0.710205 9.00002C0.525025 8.99038 0.34998 8.91249 0.218861 8.78137C0.0877412 8.65025 0.00984363 8.4752 0.000204678 8.29002C-0.000700125 8.20064 0.0165607 8.11201 0.0509402 8.0295C0.0853196 7.94698 0.136101 7.87232 0.200205 7.81002L3.5102 4.50002L0.190205 1.18002C0.127906 1.11689 0.0789727 1.04184 0.0463277 0.959369C0.0136827 0.876898 -0.00200405 0.788692 0.000204678 0.700022C0.011969 0.518233 0.0894958 0.34694 0.218309 0.218126C0.347122 0.0893132 0.518416 0.0117864 0.700205 2.20687e-05C0.792127 -0.0043439 0.883963 0.0102734 0.969987 0.0429626C1.05601 0.0756518 1.13438 0.125712 1.2002 0.190022Z"/>
</svg>
