<svg width="236" height="44" viewBox="0 0 236 44" fill="none" xmlns="http://www.w3.org/2000/svg">
<path d="M40.8776 15.1389C40.8776 9.47494 35.0696 5.10694 29.5976 5.10694C30.3176 4.24294 31.8536 2.80294 31.8536 2.51494C31.8536 1.89094 30.2696 0.354941 28.9256 0.354941C27.9176 0.354941 27.5336 0.88294 24.4136 5.39494C13.8536 6.45094 0.413574 10.0509 0.413574 15.0429C0.413574 17.0109 2.28557 18.3069 3.34157 18.3069C3.82157 18.3069 4.10957 18.1149 4.10957 17.6349C4.10957 13.6509 13.2296 10.2429 21.9656 9.04294C18.7976 13.8429 14.9096 19.9389 11.6936 25.4109C11.5976 25.3629 11.5016 25.3629 11.3576 25.3629C10.4936 25.3629 8.76557 26.3709 8.76557 27.6669C8.76557 28.1469 9.00557 28.7709 9.38957 29.4429C7.03757 33.7629 5.40557 37.3149 5.40557 38.8509C5.40557 41.3949 7.94957 43.4109 9.29357 43.4109C9.72557 43.4109 10.0616 43.1709 10.0616 42.5949C10.0616 40.2909 11.0216 37.0749 12.5576 33.3789C17.1656 38.1309 24.7976 43.6029 28.4456 43.6029C31.6136 43.6029 33.2456 40.4349 33.2456 38.9469C33.2456 38.5149 33.1016 38.2269 32.7656 38.2269C32.2856 38.2269 31.6136 39.3789 30.1256 39.3789C27.0536 39.3789 21.4376 36.2589 17.2616 32.8029C24.8456 31.6029 40.8776 23.5389 40.8776 15.1389ZM14.2856 30.0189C14.2376 29.9709 14.1896 29.9229 14.1416 29.8749C17.5976 22.6269 22.6376 14.4189 26.9096 8.61094C27.3416 8.61094 27.7736 8.61094 28.2056 8.61094C33.7256 8.61094 37.9976 9.76294 37.9976 12.6909C37.9976 19.2189 23.0696 29.1549 14.2856 30.0189ZM58.0215 28.3389C56.4854 29.8269 47.9894 37.6509 42.9494 37.6509C41.6534 37.6509 41.0774 36.9789 41.0774 35.8749C41.0774 35.7309 41.1254 35.5869 41.1254 35.4429C47.4135 34.5309 52.7414 26.6109 52.7414 23.3469C52.7414 22.0029 51.0614 19.9869 48.6134 19.9869C44.7254 19.9869 36.0854 31.6509 36.0854 36.2589C36.0854 38.7069 38.0534 40.8669 40.6934 40.8669C48.3734 40.8669 57.3495 31.7469 59.1255 29.9709C59.2694 29.8269 59.3175 29.6349 59.3175 29.4429C59.3175 28.8669 58.8375 28.1949 58.3575 28.1949C58.2614 28.1949 58.1175 28.2429 58.0215 28.3389ZM50.0534 21.9549C50.1494 21.9549 50.1974 22.0509 50.1974 22.2429C50.1974 23.7789 46.0694 31.6509 42.1814 32.3229C44.2934 27.7629 49.0454 21.9549 50.0534 21.9549ZM76.4433 28.3389C74.9073 29.8269 66.4113 37.6509 61.3713 37.6509C60.0753 37.6509 59.5473 36.9789 59.5473 35.9229C59.5473 31.7949 67.1793 21.9549 68.4753 21.9549C68.5713 21.9549 68.6193 22.0509 68.6193 22.1949C68.6193 23.2989 66.2673 27.8589 64.8273 27.8589C64.4913 27.8589 64.3473 28.0509 64.3473 28.2909C64.3473 29.0109 65.4033 30.3069 66.7473 30.3069C68.8113 30.3069 71.1633 25.9869 71.1633 23.3469C71.1633 22.0029 69.4833 19.9869 67.0353 19.9869C63.1473 19.9869 54.5073 31.6509 54.5073 36.2589C54.5073 38.7069 56.4753 40.8669 59.1153 40.8669C66.7953 40.8669 75.7713 31.7469 77.5473 29.9709C77.6913 29.8269 77.7393 29.6349 77.7393 29.4429C77.7393 28.8669 77.2593 28.1949 76.7793 28.1949C76.6833 28.1949 76.5393 28.2429 76.4433 28.3389ZM96.2572 28.3389C94.9612 29.6349 92.0812 30.4509 89.0092 30.8349C89.7292 29.2989 90.1612 28.0509 90.1612 27.3309C90.1612 24.8829 87.9532 21.6189 84.4972 21.6189C81.0412 21.6189 75.2812 25.8429 75.2812 29.0589C75.2812 29.6349 75.3292 30.1149 75.5212 30.5469C74.4172 32.1309 72.9292 35.2989 72.9292 36.5469C72.9292 38.8029 74.4172 40.8669 78.1132 40.8669C81.7132 40.8669 85.2652 37.0749 87.5212 33.4269C92.0332 32.8029 97.5532 30.9309 97.5532 29.4429C97.5532 28.8669 97.0252 28.1949 96.5452 28.1949C96.4492 28.1949 96.3532 28.2429 96.2572 28.3389ZM86.0332 23.9709C86.6092 23.9709 86.8492 24.3549 86.8492 24.9789C86.8492 26.2749 85.7932 28.6269 84.3532 31.0749C80.9452 30.9309 78.1612 30.2109 78.1612 28.8669C78.1612 27.5709 82.3372 23.9709 86.0332 23.9709ZM77.4892 38.5629C77.0572 38.5629 76.9132 38.1789 76.9132 37.5549C76.9132 36.3549 77.5372 34.3389 78.2572 32.9469C79.4572 33.4269 80.9452 33.6669 82.5772 33.7149C80.6572 36.4029 78.5932 38.5629 77.4892 38.5629ZM130.293 28.5789C128.901 29.9709 121.509 36.4989 120.165 36.4989C119.877 36.4989 119.733 36.1629 119.733 35.5869C119.733 33.2349 121.941 26.9949 123.237 25.6989C123.285 25.6509 123.333 25.5549 123.333 25.5069C123.333 24.8349 121.893 23.3469 120.549 23.3469C119.205 23.3469 113.637 27.2829 110.085 31.1709C111.381 27.6189 113.301 23.9229 114.309 22.9149C114.357 22.8669 114.357 22.8189 114.357 22.7229C114.357 22.0509 112.917 20.5629 111.573 20.5629C110.277 20.5629 103.269 26.8029 98.6133 32.5629C99.9573 29.9709 101.685 27.6669 103.173 26.1309C103.221 26.0829 103.269 25.9869 103.269 25.9389C103.269 25.2669 101.829 23.7789 100.533 23.7789C97.7973 23.7789 92.7573 35.0589 92.7573 36.8829C92.7573 39.2829 94.6293 40.9149 95.7333 40.9149C96.2613 40.9149 96.5973 40.5789 96.5973 39.9069C96.5973 38.1789 103.557 29.3949 108.117 25.1709C106.485 28.5309 104.805 32.8029 104.805 34.0989C104.805 36.4509 106.629 37.6989 107.829 37.6989C108.357 37.6989 108.741 37.4109 108.741 36.8829C108.741 35.1549 114.165 29.5869 117.957 26.9469C116.757 29.8749 115.269 33.9549 115.269 35.7789C115.269 37.8429 116.805 39.5229 118.725 39.5229C121.845 39.5229 130.341 31.3149 131.397 30.2109C131.541 30.0669 131.589 29.9229 131.589 29.7309C131.589 29.1549 131.061 28.4349 130.629 28.4349C130.485 28.4349 130.389 28.4829 130.293 28.5789ZM164.325 28.5789C162.933 29.9709 155.541 36.4989 154.197 36.4989C153.909 36.4989 153.765 36.1629 153.765 35.5869C153.765 33.2349 155.973 26.9949 157.269 25.6989C157.317 25.6509 157.365 25.5549 157.365 25.5069C157.365 24.8349 155.925 23.3469 154.581 23.3469C153.237 23.3469 147.669 27.2829 144.117 31.1709C145.413 27.6189 147.333 23.9229 148.341 22.9149C148.389 22.8669 148.389 22.8189 148.389 22.7229C148.389 22.0509 146.949 20.5629 145.605 20.5629C144.309 20.5629 137.301 26.8029 132.645 32.5629C133.989 29.9709 135.717 27.6669 137.205 26.1309C137.253 26.0829 137.301 25.9869 137.301 25.9389C137.301 25.2669 135.861 23.7789 134.565 23.7789C131.829 23.7789 126.789 35.0589 126.789 36.8829C126.789 39.2829 128.661 40.9149 129.765 40.9149C130.293 40.9149 130.629 40.5789 130.629 39.9069C130.629 38.1789 137.589 29.3949 142.149 25.1709C140.517 28.5309 138.837 32.8029 138.837 34.0989C138.837 36.4509 140.661 37.6989 141.861 37.6989C142.389 37.6989 142.773 37.4109 142.773 36.8829C142.773 35.1549 148.197 29.5869 151.989 26.9469C150.789 29.8749 149.301 33.9549 149.301 35.7789C149.301 37.8429 150.837 39.5229 152.757 39.5229C155.877 39.5229 164.373 31.3149 165.429 30.2109C165.573 30.0669 165.621 29.9229 165.621 29.7309C165.621 29.1549 165.093 28.4349 164.661 28.4349C164.517 28.4349 164.421 28.4829 164.325 28.5789ZM182.756 28.3389C181.22 29.8269 172.724 37.6509 167.684 37.6509C166.388 37.6509 165.812 36.9789 165.812 35.8749C165.812 35.7309 165.86 35.5869 165.86 35.4429C172.148 34.5309 177.476 26.6109 177.476 23.3469C177.476 22.0029 175.796 19.9869 173.348 19.9869C169.46 19.9869 160.82 31.6509 160.82 36.2589C160.82 38.7069 162.788 40.8669 165.428 40.8669C173.108 40.8669 182.084 31.7469 183.86 29.9709C184.004 29.8269 184.052 29.6349 184.052 29.4429C184.052 28.8669 183.572 28.1949 183.092 28.1949C182.996 28.1949 182.852 28.2429 182.756 28.3389ZM174.788 21.9549C174.884 21.9549 174.932 22.0509 174.932 22.2429C174.932 23.7789 170.804 31.6509 166.916 32.3229C169.028 27.7629 173.78 21.9549 174.788 21.9549ZM206.794 28.1949C205.402 29.5869 198.01 36.1149 196.666 36.1149C196.378 36.1149 196.234 35.7789 196.234 35.2029C196.234 32.8509 198.442 26.6109 199.738 25.3149C199.786 25.2669 199.834 25.1709 199.834 25.1229C199.834 24.4509 198.394 22.9629 197.05 22.9629C195.61 22.9629 188.266 29.1549 184.138 34.1469C185.482 30.9309 187.642 28.0029 189.418 26.1789C189.466 26.1309 189.514 26.0349 189.514 25.9869C189.514 25.3149 188.074 23.8269 186.778 23.8269C183.994 23.8269 179.242 35.0589 179.242 36.7869C179.242 39.2349 181.066 40.9149 182.122 40.9149C182.554 40.9149 182.842 40.6269 182.842 40.0029C182.842 38.1789 189.85 30.4989 194.314 26.9469C193.114 29.8269 191.77 33.6669 191.77 35.3949C191.77 37.4589 193.306 39.1389 195.226 39.1389C198.346 39.1389 206.842 30.9309 207.898 29.8269C208.042 29.6829 208.09 29.5389 208.09 29.3469C208.09 28.7709 207.562 28.0509 207.13 28.0509C206.986 28.0509 206.89 28.0989 206.794 28.1949ZM231.753 5.29894C230.697 6.40294 225.273 14.9949 220.761 22.7709C220.233 21.5709 218.793 20.5149 216.873 20.5149C211.353 20.5149 202.329 32.2269 202.329 37.1709C202.329 39.2829 203.337 40.9149 205.209 40.9149C207.513 40.9149 212.217 35.9709 215.817 31.8429C214.905 33.6669 214.329 35.0109 214.329 35.5869C214.329 37.6029 215.961 39.3309 217.785 39.3309C220.905 39.3309 229.353 31.0749 230.457 30.0189C230.601 29.8749 230.649 29.6829 230.649 29.4909C230.649 28.9149 230.121 28.1949 229.641 28.1949C229.449 28.1949 220.761 36.3069 219.225 36.3069C219.033 36.3069 218.937 36.1629 218.937 35.8749C218.937 32.5149 231.705 11.0109 235.497 7.21894C235.545 7.17094 235.545 7.07494 235.545 7.02694C235.545 6.35494 234.105 4.86694 232.809 4.86694C232.425 4.86694 232.041 5.01094 231.753 5.29894ZM206.169 37.6989C206.121 37.6989 206.073 37.6509 206.073 37.6029C206.073 36.2589 215.049 22.9149 217.833 22.9149C218.649 22.9149 219.369 24.4509 219.369 24.8829C219.369 24.9789 219.369 25.0269 219.417 25.1229C217.497 27.0909 207.321 37.6989 206.169 37.6989Z" fill="#FCBF3A"/>
</svg>
